<svg xmlns="http://www.w3.org/2000/svg" xmlns:xlink="http://www.w3.org/1999/xlink" width="464pt" height="119pt" viewBox="0 0 464 119"><g id="graph0" class="graph" transform="scale(1 1) rotate(0) translate(4 115)"><title>a_graph</title><polygon fill="#fff" stroke="transparent" points="-4 4 -4 -115 460 -115 460 4 -4 4"/><g id="node1" class="node"><title>T1162</title><polygon fill="none" stroke="#0058ad" points="0 -81.5 0 -110.5 456 -110.5 456 -81.5 0 -81.5"/><text x="114" y="-92.3" fill="#0058ad" font-family="Times,serif" font-size="14" text-anchor="middle">r 44 [1 2 3 4 5 6 7 8 9 10 11 12 13 14]</text><polyline fill="none" stroke="#0058ad" points="228 -81.5 228 -110.5"/><text x="342" y="-92.3" fill="#0058ad" font-family="Times,serif" font-size="14" text-anchor="middle">r 44 [1 2 3 4 5 6 7 8 9 10 11 12 13 14]</text></g><g id="node2" class="node"><title>T1159</title><polygon fill="none" stroke="#0058ad" points="123.5 -.5 123.5 -29.5 180.5 -29.5 180.5 -.5 123.5 -.5"/><text x="152" y="-11.3" fill="#0058ad" font-family="Times,serif" font-size="14" text-anchor="middle">a 44 15</text></g><g id="edge1" class="edge"><title>T1162:f0-&gt;T1159:f0</title><path fill="none" stroke="#5b00c0" d="M114,-81C114,-65.15 122.34,-49.67 131.2,-37.69"/><polygon fill="#5b00c0" stroke="#5b00c0" points="134.13 -39.63 137.63 -29.63 128.66 -35.26 134.13 -39.63"/><text x="132.5" y="-51.8" fill="#5b00c0" font-family="Times,serif" font-size="14" text-anchor="middle">rw</text></g><g id="edge2" class="edge"><title>T1159-&gt;T1162</title><path fill="none" stroke="#0050c0" d="M165.09,-29.6C176.81,-41.79 194.18,-59.85 207.71,-73.9"/><polygon fill="#0050c0" stroke="#0050c0" points="205.31 -76.46 214.76 -81.24 210.35 -71.61 205.31 -76.46"/><text x="200.5" y="-51.8" fill="#0050c0" font-family="Times,serif" font-size="14" text-anchor="middle">rt</text></g></g></svg>