<svg xmlns="http://www.w3.org/2000/svg" xmlns:xlink="http://www.w3.org/1999/xlink" width="268pt" height="362pt" viewBox="0 0 268 362"><g id="graph0" class="graph" transform="scale(1 1) rotate(0) translate(4 358)"><title>a_graph</title><polygon fill="#fff" stroke="transparent" points="-4 4 -4 -358 264 -358 264 4 -4 4"/><g id="node1" class="node"><title>T9</title><polygon fill="none" stroke="#0058ad" points="165 -324.5 165 -353.5 260 -353.5 260 -324.5 165 -324.5"/><text x="187" y="-335.3" fill="#0058ad" font-family="Times,serif" font-size="14" text-anchor="middle">a 9 2</text><polyline fill="none" stroke="#0058ad" points="209 -324.5 209 -353.5"/><text x="234.5" y="-335.3" fill="#0058ad" font-family="Times,serif" font-size="14" text-anchor="middle">r 9 [2]</text></g><g id="node4" class="node"><title>T11</title><polygon fill="none" stroke="#0058ad" points="0 -243.5 0 -272.5 189 -272.5 189 -243.5 0 -243.5"/><text x="22" y="-254.3" fill="#0058ad" font-family="Times,serif" font-size="14" text-anchor="middle">a 8 4</text><polyline fill="none" stroke="#0058ad" points="44 -243.5 44 -272.5"/><text x="69" y="-254.3" fill="#0058ad" font-family="Times,serif" font-size="14" text-anchor="middle">r 7 nil</text><polyline fill="none" stroke="#0058ad" points="94 -243.5 94 -272.5"/><text x="119.5" y="-254.3" fill="#0058ad" font-family="Times,serif" font-size="14" text-anchor="middle">r 9 [2]</text><polyline fill="none" stroke="#0058ad" points="145 -243.5 145 -272.5"/><text x="167" y="-254.3" fill="#0058ad" font-family="Times,serif" font-size="14" text-anchor="middle">a 9 3</text></g><g id="edge1" class="edge"><title>T9:f0-&gt;T11:f2</title><path fill="none" stroke="#c000a5" d="M163.5,-339C131.69,-339 121.46,-313.97 119.77,-283.17"/><polygon fill="#c000a5" stroke="#c000a5" points="123.26 -282.9 119.5 -273 116.26 -283.09 123.26 -282.9"/><text x="131" y="-294.8" fill="#c000a5" font-family="Times,serif" font-size="14" text-anchor="middle">wr</text></g><g id="node2" class="node"><title>T17</title><polygon fill="none" stroke="#0058ad" points="124.5 -.5 124.5 -29.5 218.5 -29.5 218.5 -.5 124.5 -.5"/><text x="146.5" y="-11.3" fill="#0058ad" font-family="Times,serif" font-size="14" text-anchor="middle">a 4 1</text><polyline fill="none" stroke="#0058ad" points="168.5 -.5 168.5 -29.5"/><text x="193.5" y="-11.3" fill="#0058ad" font-family="Times,serif" font-size="14" text-anchor="middle">r 9 nil</text></g><g id="edge2" class="edge"><title>T17:f1-&gt;T9:f0</title><path fill="none" stroke="#5b00c0" d="M193.5,-30C193.5,-60.95 218.5,-64.05 218.5,-95 218.5,-259 218.5,-259 218.5,-259 218.5,-287.43 193.56,-291.23 187.72,-313.88"/><polygon fill="#5b00c0" stroke="#5b00c0" points="184.22 -313.65 186.5 -324 191.17 -314.49 184.22 -313.65"/><text x="226" y="-173.3" fill="#5b00c0" font-family="Times,serif" font-size="14" text-anchor="middle">rw</text></g><g id="node3" class="node"><title>T13</title><polygon fill="none" stroke="#0058ad" points=".5 -162.5 .5 -191.5 182.5 -191.5 182.5 -162.5 .5 -162.5"/><text x="22.5" y="-173.3" fill="#0058ad" font-family="Times,serif" font-size="14" text-anchor="middle">a 9 4</text><polyline fill="none" stroke="#0058ad" points="44.5 -162.5 44.5 -191.5"/><text x="66.5" y="-173.3" fill="#0058ad" font-family="Times,serif" font-size="14" text-anchor="middle">a 9 5</text><polyline fill="none" stroke="#0058ad" points="88.5 -162.5 88.5 -191.5"/><text x="110.5" y="-173.3" fill="#0058ad" font-family="Times,serif" font-size="14" text-anchor="middle">a 9 6</text><polyline fill="none" stroke="#0058ad" points="132.5 -162.5 132.5 -191.5"/><text x="157.5" y="-173.3" fill="#0058ad" font-family="Times,serif" font-size="14" text-anchor="middle">r 6 nil</text></g><g id="node5" class="node"><title>T15</title><polygon fill="none" stroke="#0058ad" points="118.5 -81.5 118.5 -110.5 172.5 -110.5 172.5 -81.5 118.5 -81.5"/><text x="145.5" y="-92.3" fill="#0058ad" font-family="Times,serif" font-size="14" text-anchor="middle">a 9 7</text></g><g id="edge3" class="edge"><title>T13-&gt;T15</title><path fill="none" stroke="#0050c0" d="M100.91,-162.24C109.04,-150.34 120.94,-132.93 130.4,-119.09"/><polygon fill="#0050c0" stroke="#0050c0" points="133.45 -120.83 136.2 -110.6 127.67 -116.88 133.45 -120.83"/><text x="128" y="-132.8" fill="#0050c0" font-family="Times,serif" font-size="14" text-anchor="middle">rt</text></g><g id="edge4" class="edge"><title>T11-&gt;T13</title><path fill="none" stroke="#0050c0" d="M93.98,-243.24C93.54,-231.8 92.91,-215.25 92.4,-201.69"/><polygon fill="#0050c0" stroke="#0050c0" points="95.89 -201.46 92.02 -191.6 88.9 -201.73 95.89 -201.46"/><text x="98" y="-213.8" fill="#0050c0" font-family="Times,serif" font-size="14" text-anchor="middle">rt</text></g><g id="edge5" class="edge"><title>T15-&gt;T17</title><path fill="none" stroke="#0050c0" d="M150.03,-81.24C153.83,-69.68 159.35,-52.93 163.84,-39.29"/><polygon fill="#0050c0" stroke="#0050c0" points="167.22 -40.2 167.02 -29.6 160.57 -38.01 167.22 -40.2"/><text x="166" y="-51.8" fill="#0050c0" font-family="Times,serif" font-size="14" text-anchor="middle">rt</text></g></g></svg>